<?xml version="1.0" standalone="no"?>
<!DOCTYPE svg PUBLIC "-//W3C//DTD SVG 20010904//EN"
 "http://www.w3.org/TR/2001/REC-SVG-20010904/DTD/svg10.dtd">
<svg version="1.0" xmlns="http://www.w3.org/2000/svg"
   fill="none" viewBox="0 0 128 128"
 preserveAspectRatio="xMidYMid meet">

<path d="M0 40000 l0 -40000 40000 0 40000 0 0 40000 0 40000 -40000 0 -40000
0 0 -40000z m21871 21248 c13072 -7545 18122 -10458 18129 -10458 8 0 4535
2612 18744 10813 835 483 1520 877 1522 877 2 0 3 -1677 2 -3727 l-3 -3727
-2915 -1684 c-1603 -926 -6162 -3559 -10130 -5849 l-7215 -4165 -59 31 c-42
23 -10226 5899 -13574 7832 l-152 88 2 -2630 3 -2631 6884 -3974 c3786 -2186
6887 -3974 6891 -3974 5 0 2624 1510 5822 3356 3197 1846 8869 5121 12603
7277 3735 2156 6827 3942 6873 3968 l82 49 0 -3738 0 -3737 -1652 -955 c-909
-524 -3293 -1901 -5298 -3058 -2005 -1158 -6972 -4026 -11037 -6373 l-7393
-4268 -6877 3971 c-3783 2184 -6884 3973 -6891 3975 -10 4 -12 -551 -10 -2767
l3 -2773 6875 -3970 c3781 -2183 6882 -3971 6891 -3974 9 -3 4239 2512 10140
6028 5568 3317 10127 6034 10132 6036 4 2 7 -1689 7 -3759 l0 -3763 -202 -121
c-318 -190 -18474 -11008 -19304 -11502 -407 -243 -747 -444 -755 -447 -8 -3
-1292 756 -2939 1737 -1609 959 -6168 3676 -10132 6038 l-7208 4294 0 6351 0
6350 -2555 1475 -2555 1474 0 3738 0 3737 128 -74 c70 -41 1218 -704 2552
-1474 l2425 -1400 3 6354 c1 3495 4 6355 6 6355 2 0 964 -554 2137 -1232z"/>
<style>
        path { fill: #000; }
        @media (prefers-color-scheme: dark) {
            path { fill: #FFF; }
        }
</style>
</svg>
